<svg xmlns="http://www.w3.org/2000/svg" viewBox="0 0 1400 991.35"><defs><style>.cls-1{isolation:isolate;}.cls-10,.cls-2,.cls-8{fill:#fff;}.cls-3{fill:#e8e8f0;mix-blend-mode:multiply;}.cls-3,.cls-7,.cls-8{opacity:0.5;}.cls-4{fill:#e1245a;}.cls-5{fill:#00d7d3;}.cls-6{fill:#ffb043;}.cls-9{fill:none;}.cls-10{font-size:11.68px;font-family:Poppins-Bold, Poppins;font-weight:700;}</style></defs><g class="cls-1"><g id="Layer_2" data-name="Layer 2"><g id="Template"><rect class="cls-2" width="1400" height="991.35"/><polygon class="cls-3" points="1207.15 378.94 1400 571.79 1400 525.67 1207.15 332.82 1207.15 378.94"/><polygon class="cls-3" points="192.85 612.41 0 419.56 0 465.68 192.85 658.53 192.85 612.41"/><polygon class="cls-4" points="1399.99 0 803.85 0 848.55 44.71 1355.28 44.71 1355.29 44.71 1399.99 0 1400 0 1399.99 0"/><polygon class="cls-4" points="1348.56 51.44 1348.55 51.44 855.28 51.44 1101.92 298.07 1183.04 216.96 1348.56 51.44"/><polygon class="cls-4" points="216.96 774.39 51.45 939.9 51.45 939.9 544.72 939.9 298.08 693.27 216.96 774.39"/><polygon class="cls-4" points="44.71 946.63 0.01 991.34 0 991.35 0.01 991.35 596.15 991.34 551.45 946.63 44.72 946.63 44.71 946.63"/><polygon class="cls-5" points="1348.56 939.9 544.72 939.9 551.45 946.63 1355.29 946.63 1355.29 389.2 1348.56 382.47 1348.56 939.9"/><polygon class="cls-6" points="1183.04 216.96 1348.56 382.47 1348.56 51.44 1348.56 51.44 1183.04 216.96"/><polygon class="cls-6" points="1400 433.91 1399.99 0 1355.29 44.71 1355.29 44.71 1355.29 389.2 1400 433.91"/><polygon class="cls-6" points="51.45 939.9 216.96 774.39 51.44 608.88 51.44 939.9 51.45 939.9"/><polygon class="cls-6" points="0.01 991.34 44.71 946.63 44.71 946.63 44.71 602.15 0 557.44 0.01 991.34"/><polygon class="cls-6" points="855.28 51.44 848.55 44.71 44.71 44.71 44.71 602.15 51.44 608.88 51.44 51.44 855.28 51.44"/><polygon class="cls-2" points="1355.29 44.71 1355.28 44.71 848.55 44.71 855.28 51.44 1348.55 51.44 1348.56 51.44 1348.56 51.44 1348.56 382.47 1355.29 389.2 1355.29 44.71 1355.29 44.71"/><polygon class="cls-2" points="51.45 939.9 51.45 939.9 51.44 939.9 51.44 608.88 44.71 602.15 44.71 946.63 44.71 946.63 44.72 946.63 551.45 946.63 544.72 939.9 51.45 939.9"/></g><g id="Badge"><path class="cls-6" d="M1318.32,820.68c0,3.76-7,7-7.49,10.66s5.45,8.67,4.5,12.22-8.59,5-10,8.35,3,9.78,1.16,13-9.57,2.53-11.83,5.46.39,10.21-2.23,12.84-9.89,0-12.84,2.23-2.24,10-5.46,11.83-9.54-2.59-13-1.16-4.74,9-8.35,10-8.51-5-12.22-4.5-6.9,7.49-10.66,7.49-7-7-10.66-7.49-8.68,5.44-12.23,4.5-4.94-8.59-8.35-10-9.77,3-13,1.15-2.53-9.56-5.47-11.82-10.21.39-12.83-2.24,0-9.88-2.24-12.83-10-2.25-11.82-5.46,2.59-9.54,1.16-13-9-4.74-10-8.35,5-8.51,4.5-12.22-7.49-6.9-7.49-10.66,7-7,7.49-10.66-5.45-8.68-4.5-12.23,8.59-4.94,10-8.35-3-9.77-1.16-13,9.57-2.53,11.83-5.47-.39-10.21,2.23-12.83,9.89,0,12.83-2.24,2.25-10,5.47-11.82,9.53,2.58,13,1.16,4.74-9,8.35-10,8.51,5,12.23,4.5,6.9-7.49,10.66-7.49,7,7,10.66,7.49,8.67-5.45,12.22-4.5,5,8.59,8.35,10,9.78-3,13-1.16,2.53,9.57,5.46,11.82,10.22-.38,12.84,2.24,0,9.89,2.23,12.83,10,2.25,11.83,5.47-2.59,9.53-1.16,13,9,4.74,10,8.35-5,8.51-4.5,12.23S1318.32,816.92,1318.32,820.68Z"/><g class="cls-7"><path class="cls-2" d="M1170.55,825.08a3.42,3.42,0,1,1-3.42-3.42A3.42,3.42,0,0,1,1170.55,825.08Z"/><path class="cls-2" d="M1296.12,825.08a3.42,3.42,0,1,1-3.42-3.42A3.42,3.42,0,0,1,1296.12,825.08Z"/></g><path class="cls-8" d="M1263.18,797h-10c0-.55,0-1.1,0-1.66a.55.55,0,0,0-.55-.55h-45.46a.54.54,0,0,0-.55.55c0,.56,0,1.11,0,1.66h-10a2.21,2.21,0,0,0-2.22,2.21,36.16,36.16,0,0,0,22.89,33.68,19.17,19.17,0,0,0,9.82,6.68v11.74a8.87,8.87,0,0,1-8.87,8.87.56.56,0,0,0-.56.56v4.43a.57.57,0,0,0,.56.57h23.28a.56.56,0,0,0,.55-.57v-4.43a.56.56,0,0,0-.55-.56,8.87,8.87,0,0,1-8.87-8.87V839.58c3.88-.81,6.94-3.16,9.82-6.68a36.16,36.16,0,0,0,22.89-33.68A2.22,2.22,0,0,0,1263.18,797ZM1199,801.45h7.9a66.57,66.57,0,0,0,5.89,24.09A31.33,31.33,0,0,1,1199,801.45ZM1238,813.19l-2.71,2.65.65,3.73a2.07,2.07,0,0,1-.34,1.79,1.83,1.83,0,0,1-2.34.17l-3.36-1.75-3.35,1.77a2.53,2.53,0,0,1-1.2.34,1.47,1.47,0,0,1-1.14-.5,2.08,2.08,0,0,1-.35-1.78l.63-3.74-2.7-2.72-.12-.11h0l0,.09,0,0h0l-.06-.06,0,0a1.8,1.8,0,0,1-.56-1.83,1.91,1.91,0,0,1,1.73-1.17l3.74-.55,1.67-3.41c.55-1.12,1.28-1.28,1.66-1.28s1.11.16,1.66,1.27l1.69,3.4,3.75.53c1.23.18,1.62.81,1.74,1.18A1.89,1.89,0,0,1,1238,813.19Zm9.07,12.35a66.77,66.77,0,0,0,5.9-24.09h7.9A31.32,31.32,0,0,1,1247.09,825.54Z"/><circle class="cls-9" cx="1229.92" cy="824.12" r="59.12" transform="translate(160.77 1848.22) rotate(-77.59)"/><g class="cls-7"><text class="cls-10" transform="translate(1171.13 817.9) rotate(-82.76)"> </text><text class="cls-10" transform="translate(1171.49 815.11) rotate(-80.02)"> </text><text class="cls-10" transform="translate(1172 812.32) rotate(-77.27)"> </text><text class="cls-10" transform="translate(1172.63 809.57) rotate(-74.55)"> </text><text class="cls-10" transform="matrix(0.34, -0.94, 0.94, 0.34, 1173.3, 806.91)">E</text><text class="cls-10" transform="translate(1175.42 800.65) rotate(-61.61)">M</text><text class="cls-10" transform="translate(1180.76 791.11) rotate(-52.63)">P</text><text class="cls-10" transform="matrix(0.69, -0.72, 0.72, 0.69, 1185.42, 785.12)">L</text><text class="cls-10" transform="translate(1189.47 780.78) rotate(-38.52)">O</text><text class="cls-10" transform="translate(1196.95 774.92) rotate(-29.98)">Y</text><text class="cls-10" transform="matrix(0.92, -0.39, 0.39, 0.92, 1204.13, 770.86)">E</text><text class="cls-10" transform="matrix(0.96, -0.28, 0.28, 0.96, 1210.26, 768.3)">E</text><text class="cls-10" transform="translate(1216.7 766.5) rotate(-11.86)"> </text><text class="cls-10" transform="matrix(0.99, -0.1, 0.1, 0.99, 1219.35, 765.78)">O</text><text class="cls-10" transform="translate(1228.85 764.92) rotate(2.06)">F</text><text class="cls-10" transform="translate(1235.67 765.27) rotate(6.75)"> </text><text class="cls-10" transform="matrix(0.98, 0.2, -0.2, 0.98, 1238.4, 765.52)">t</text><text class="cls-10" transform="matrix(0.94, 0.34, -0.34, 0.94, 1245.4, 766.85)">h</text><text class="cls-10" transform="translate(1253.71 769.91) rotate(26.63)">e</text><text class="cls-10" transform="translate(1259.64 772.99) rotate(31.22)"> </text><text class="cls-10" transform="translate(1262.07 774.2) rotate(37.9)">m</text><text class="cls-10" transform="translate(1270.63 780.98) rotate(47.83)">o</text><text class="cls-10" transform="matrix(0.55, 0.84, -0.84, 0.55, 1276.98, 788.06)">n</text><text class="cls-10" transform="translate(1281.87 795.67) rotate(64.55)">T</text><text class="cls-10" transform="translate(1284.94 802.05) rotate(72.2)">h</text><text class="cls-10" transform="translate(1287.5 810.59) rotate(77.84)"> </text><text class="cls-10" transform="translate(1288.09 813.34) rotate(80.56)"> </text><text class="cls-10" transform="translate(1288.54 816.13) rotate(83.31)"> </text><text class="cls-10" transform="matrix(0.07, 1, -1, 0.07, 1288.86, 818.94)"> </text><text class="cls-10" transform="translate(1289.04 821.77) rotate(88.83)"> </text><text class="cls-10" transform="matrix(-0.03, 1, -1, -0.03, 1289.09, 824.58)"> </text><text class="cls-10" transform="matrix(-0.08, 1, -1, -0.08, 1289, 827.4)"> </text><text class="cls-10" transform="matrix(-0.12, 0.99, -0.99, -0.12, 1288.77, 830.23)"> </text><text class="cls-10" transform="translate(1288.41 833.03) rotate(99.85)"> </text><text class="cls-10" transform="translate(1287.91 835.82) rotate(102.6)"> </text><text class="cls-10" transform="translate(1287.37 838.51) rotate(107.13)">e</text><text class="cls-10" transform="matrix(-0.43, 0.9, -0.9, -0.43, 1285.57, 844.85)">m</text><text class="cls-10" transform="translate(1280.71 854.67) rotate(124.49)">p</text><text class="cls-10" transform="translate(1276.36 860.88) rotate(131.08)">l</text><text class="cls-10" transform="translate(1272.54 865.41) rotate(138.61)">o</text><text class="cls-10" transform="matrix(-0.84, 0.54, -0.54, -0.84, 1265.36, 871.64)">y</text><text class="cls-10" transform="translate(1258.37 876.06) rotate(154.33)">e</text><text class="cls-10" transform="translate(1252.4 878.91) rotate(160.7)">e</text><text class="cls-10" transform="matrix(-0.97, 0.25, -0.25, -0.97, 1246.03, 881.04)"> </text><text class="cls-10" transform="translate(1243.43 881.89) rotate(171.26)">o</text><text class="cls-10" transform="matrix(-1, 0.01, -0.01, -1, 1234.01, 883.22)">f</text><text class="cls-10" transform="translate(1227.18 883.22) rotate(-176.16)"> </text><text class="cls-10" transform="translate(1224.43 883.11) rotate(-171.32)">t</text><text class="cls-10" transform="matrix(-0.96, -0.28, 0.28, -0.96, 1217.38, 882.07)">h</text><text class="cls-10" transform="translate(1208.95 879.49) rotate(-156.26)">e</text><text class="cls-10" transform="translate(1202.83 876.69) rotate(-151.65)"> </text><text class="cls-10" transform="translate(1200.35 875.61) rotate(-144.98)">m</text><text class="cls-10" transform="translate(1191.47 869.28) rotate(-135.07)">o</text><text class="cls-10" transform="matrix(-0.59, -0.81, 0.81, -0.59, 1184.77, 862.54)">n</text><text class="cls-10" transform="translate(1179.51 855.17) rotate(-118.32)">t</text><text class="cls-10" transform="matrix(-0.35, -0.94, 0.94, -0.35, 1176.11, 848.94)">h</text><text class="cls-10" transform="matrix(-0.26, -0.97, 0.97, -0.26, 1173.13, 840.57)"> </text><text class="cls-10" transform="translate(1172.41 837.81) rotate(-102.29)"> </text><text class="cls-10" transform="translate(1171.82 835.06) rotate(-99.57)"> </text><text class="cls-10" transform="translate(1171.36 832.28) rotate(-96.83)"> </text></g></g></g></g></svg>