<svg xmlns="http://www.w3.org/2000/svg" viewBox="0 0 917.94 650"><defs><style>.cls-1{isolation:isolate;}.cls-2,.cls-7{fill:#fff;}.cls-3{fill:#e8e8f0;mix-blend-mode:multiply;}.cls-3,.cls-6,.cls-7{opacity:0.5;}.cls-4{fill:#e1245a;}.cls-5{fill:#ffb043;}.cls-8{fill:none;}</style></defs><g class="cls-1"><g id="Layer_2" data-name="Layer 2"><g id="Template"><rect class="cls-2" width="917.94" height="650"/><polygon class="cls-3" points="791.5 248.46 917.94 374.91 917.94 344.67 791.5 218.22 791.5 248.46"/><polygon class="cls-3" points="126.45 401.54 0 275.09 0 305.33 126.45 431.78 126.45 401.54"/><polygon class="cls-4" points="917.94 0 527.06 0 556.38 29.32 888.62 29.32 888.63 29.32 917.94 0 917.94 0 917.94 0"/><polygon class="cls-4" points="884.21 33.73 884.21 33.73 560.79 33.73 722.5 195.44 775.69 142.25 884.21 33.73"/><polygon class="cls-4" points="142.25 507.75 33.73 616.27 33.73 616.27 357.16 616.27 195.44 454.56 142.25 507.75"/><polygon class="cls-4" points="29.32 620.68 0 650 0 650 0 650 390.88 650 361.57 620.68 29.32 620.68 29.32 620.68"/><polygon class="cls-4" points="884.21 616.27 357.16 616.27 361.57 620.68 888.63 620.68 888.63 255.19 884.21 250.77 884.21 616.27"/><polygon class="cls-5" points="775.69 142.25 884.21 250.77 884.21 33.73 884.21 33.73 775.69 142.25"/><polygon class="cls-5" points="917.94 284.5 917.94 0 888.63 29.32 888.63 29.32 888.63 255.19 917.94 284.5"/><polygon class="cls-5" points="33.73 616.27 142.25 507.75 33.73 399.23 33.73 616.27 33.73 616.27"/><polygon class="cls-5" points="0 650 29.32 620.68 29.32 620.68 29.32 394.81 0 365.5 0 650"/><polygon class="cls-5" points="560.79 33.73 556.38 29.32 29.32 29.32 29.32 394.81 33.73 399.23 33.73 33.73 560.79 33.73"/><polygon class="cls-2" points="888.63 29.32 888.62 29.32 556.38 29.32 560.79 33.73 884.21 33.73 884.21 33.73 884.21 33.73 884.21 250.77 888.63 255.19 888.63 29.32 888.63 29.32"/><polygon class="cls-2" points="33.73 616.27 33.73 616.27 33.73 616.27 33.73 399.23 29.32 394.81 29.32 620.68 29.32 620.68 29.32 620.68 361.57 620.68 357.16 616.27 33.73 616.27"/></g><g id="Badge"><path class="cls-5" d="M860.42,538.06c0,2.47-4.6,4.61-4.91,7s3.57,5.69,3,8-5.63,3.24-6.56,5.47,2,6.41.76,8.51-6.27,1.66-7.75,3.58.25,6.7-1.47,8.42-6.48,0-8.41,1.46-1.48,6.53-3.59,7.75-6.25-1.69-8.5-.76-3.11,5.93-5.48,6.56-5.58-3.27-8-2.95-4.53,4.91-7,4.91-4.61-4.6-7-4.91-5.69,3.57-8,2.95-3.24-5.63-5.47-6.56-6.41,2-8.51.76-1.66-6.27-3.58-7.75-6.7.25-8.42-1.47,0-6.48-1.46-8.41-6.54-1.47-7.76-3.58,1.7-6.25.76-8.51-5.92-3.11-6.55-5.48,3.26-5.57,2.95-8-4.91-4.52-4.91-7,4.6-4.61,4.91-7-3.58-5.69-2.95-8,5.63-3.25,6.55-5.48-2-6.41-.76-8.51,6.28-1.66,7.76-3.58-.26-6.7,1.46-8.42,6.49,0,8.42-1.46,1.47-6.53,3.58-7.75,6.25,1.69,8.51.76,3.11-5.93,5.47-6.56,5.58,3.27,8,2.95,4.52-4.91,7-4.91,4.6,4.6,7,4.91,5.69-3.57,8-2.95,3.24,5.63,5.48,6.56,6.41-2,8.5-.76,1.66,6.27,3.59,7.75,6.69-.25,8.41,1.47,0,6.48,1.47,8.41,6.53,1.47,7.75,3.58-1.7,6.25-.76,8.51,5.92,3.11,6.56,5.48-3.27,5.57-3,8S860.42,535.59,860.42,538.06Z"/><g class="cls-6"><path class="cls-2" d="M763.53,538.69a2.24,2.24,0,1,1-2.24-2.24A2.24,2.24,0,0,1,763.53,538.69Z"/><path class="cls-2" d="M845.86,538.69a2.24,2.24,0,1,1-2.24-2.24A2.24,2.24,0,0,1,845.86,538.69Z"/></g><path class="cls-7" d="M830.07,514.48h-8.3c0-.46,0-.91,0-1.38a.47.47,0,0,0-.46-.46H783.59a.46.46,0,0,0-.46.46c0,.47,0,.92,0,1.38h-8.3a1.84,1.84,0,0,0-1.84,1.84,30,30,0,0,0,19,28,15.93,15.93,0,0,0,8.15,5.54v9.75a7.37,7.37,0,0,1-7.36,7.37.47.47,0,0,0-.46.46v3.68a.48.48,0,0,0,.46.48h19.33a.47.47,0,0,0,.46-.48V567.4a.46.46,0,0,0-.46-.46,7.37,7.37,0,0,1-7.36-7.37v-9.75c3.22-.67,5.76-2.62,8.15-5.54a30,30,0,0,0,19-28A1.84,1.84,0,0,0,830.07,514.48Zm-53.33,3.69h6.57a55.25,55.25,0,0,0,4.89,20A26,26,0,0,1,776.74,518.17Zm32.44,9.74-2.25,2.2.55,3.1a1.72,1.72,0,0,1-.29,1.48,1.52,1.52,0,0,1-1.94.15l-2.79-1.46-2.78,1.47a2.13,2.13,0,0,1-1,.29,1.23,1.23,0,0,1-.95-.42,1.74,1.74,0,0,1-.28-1.48l.52-3.1-2.24-2.26-.1-.09h0l0,.07v0h0l0,0,0,0a1.5,1.5,0,0,1-.46-1.52,1.58,1.58,0,0,1,1.43-1l3.11-.46,1.39-2.82c.46-.93,1.06-1.07,1.38-1.07s.92.14,1.38,1.06l1.4,2.82,3.11.44a1.43,1.43,0,0,1,.86,2.62Zm7.54,10.25a55.14,55.14,0,0,0,4.89-20h6.56A26,26,0,0,1,816.72,538.16Z"/><circle class="cls-8" cx="802.46" cy="538.06" r="38.76" transform="translate(104.54 1206.16) rotate(-77.59)"/></g></g></g></svg>